<?xml version="1.0" encoding="UTF-8"?><!DOCTYPE svg PUBLIC "-//W3C//DTD SVG 1.1//EN" "http://www.w3.org/Graphics/SVG/1.1/DTD/svg11.dtd"><svg xmlns="http://www.w3.org/2000/svg" xmlns:xlink="http://www.w3.org/1999/xlink"><g id="arrow_right" viewBox="0 0 24 24">
    <path d="M8.59 16.34l4.58-4.59-4.58-4.59L10 5.75l6 6-6 6z"/>
    <path d="M0-.25h24v24H0z" fill="none"/>
</g><g id="check" viewBox="0 0 24 24">
    <path d="M0 0h24v24H0z" fill="none"/>
    <path d="M9 16.17L4.83 12l-1.42 1.41L9 19 21 7l-1.41-1.41z"/>
</g><g id="check_circle" viewBox="0 0 24 24">
    <path d="M0 0h24v24H0z" fill="none"/>
    <path d="M12 2C6.48 2 2 6.48 2 12s4.48 10 10 10 10-4.48 10-10S17.52 2 12 2zm-2 15l-5-5 1.41-1.41L10 14.17l7.59-7.59L19 8l-9 9z"/>
</g><g id="electron" viewBox="0 0 22 24">
<path d="M7.796 5.16c-3.135-0.579-5.61 0.032-6.607 1.736-0.739 1.27-0.53 2.974 0.514 4.774 0.080 0.161 0.289 0.209 0.434 0.113 0.161-0.080 0.209-0.289 0.113-0.434-0.932-1.624-1.109-3.086-0.514-4.131 0.82-1.415 3.038-1.961 5.932-1.431 0.177 0.032 0.338-0.080 0.37-0.257s-0.064-0.338-0.241-0.37zM3.344 13.873c1.27 1.399 2.91 2.701 4.79 3.778 4.549 2.62 9.388 3.328 11.783 1.704 0.145-0.096 0.177-0.305 0.080-0.45s-0.305-0.177-0.45-0.080c-2.138 1.463-6.735 0.788-11.092-1.72-1.816-1.045-3.424-2.315-4.646-3.665-0.113-0.129-0.321-0.145-0.45-0.016-0.129 0.113-0.145 0.321-0.016 0.45z"/>
<path d="M19.145 13.487c2.058-2.427 2.765-4.871 1.784-6.575-0.723-1.254-2.267-1.913-4.292-1.945-0.177 0-0.321 0.145-0.321 0.321s0.145 0.321 0.321 0.321c1.833 0.016 3.151 0.595 3.745 1.624 0.82 1.415 0.177 3.601-1.72 5.835-0.113 0.129-0.096 0.338 0.032 0.45s0.338 0.096 0.45-0.032zM13.873 5.257c-1.849 0.402-3.826 1.173-5.723 2.267-4.71 2.717-7.764 6.719-7.346 9.613 0.032 0.177 0.193 0.289 0.37 0.273 0.177-0.032 0.289-0.193 0.273-0.37-0.386-2.572 2.524-6.35 7.025-8.954 1.849-1.061 3.762-1.816 5.546-2.202 0.177-0.032 0.289-0.209 0.241-0.386-0.048-0.161-0.209-0.273-0.386-0.241z"/>
<path d="M6.269 19.145c1.077 2.99 2.829 4.839 4.806 4.839 1.447 0 2.765-0.981 3.81-2.717 0.096-0.145 0.048-0.354-0.113-0.434-0.145-0.096-0.354-0.048-0.434 0.113-0.932 1.559-2.074 2.395-3.263 2.395-1.64 0-3.199-1.64-4.196-4.421-0.064-0.161-0.241-0.257-0.418-0.193s-0.257 0.257-0.193 0.418zM16.075 18.567c0.563-1.768 0.852-3.826 0.852-5.964 0-5.321-1.865-9.918-4.517-11.092-0.161-0.064-0.354 0-0.418 0.161s0 0.354 0.161 0.418c2.363 1.045 4.131 5.401 4.131 10.513 0 2.074-0.289 4.051-0.82 5.771-0.048 0.177 0.048 0.354 0.209 0.402s0.338-0.048 0.402-0.209zM22.119 18.245c0-0.852-0.691-1.543-1.543-1.543s-1.543 0.691-1.543 1.543 0.691 1.543 1.543 1.543c0.868 0 1.543-0.691 1.543-1.543zM21.476 18.245c0 0.498-0.402 0.9-0.9 0.9s-0.9-0.402-0.9-0.9 0.402-0.9 0.9-0.9c0.498 0 0.9 0.402 0.9 0.9zM1.527 19.788c0.852 0 1.543-0.691 1.543-1.543s-0.691-1.543-1.543-1.543-1.543 0.691-1.543 1.543 0.691 1.543 1.543 1.543zM1.527 19.145c-0.498 0-0.9-0.402-0.9-0.9s0.402-0.9 0.9-0.9 0.9 0.402 0.9 0.9-0.402 0.9-0.9 0.9z"/>
<path d="M11.076 3.070c0.852 0 1.543-0.691 1.543-1.543s-0.691-1.543-1.543-1.543-1.543 0.691-1.543 1.543 0.691 1.543 1.543 1.543zM11.076 2.427c-0.498 0-0.9-0.402-0.9-0.9s0.402-0.9 0.9-0.9c0.498 0 0.9 0.402 0.9 0.9s-0.418 0.9-0.9 0.9zM11.301 13.696c-0.595 0.129-1.19-0.257-1.318-0.852s0.257-1.19 0.852-1.318c0.595-0.129 1.19 0.257 1.318 0.852s-0.241 1.19-0.852 1.318z"/>
</g></svg>